<svg xmlns="http://www.w3.org/2000/svg" viewBox="0 0 101 101"><path d="M83.7 45.6c-.2-.8-.8-1.4-1.6-1.7l-19.2-6.4-10.2-18.9c-.4-.8-1.2-1.3-2.1-1.3-.9 0-1.7.5-2.1 1.3L38.3 37.4l-19.4 5.8c-.8.2-1.4.9-1.6 1.7-.2.8 0 1.7.5 2.3l12.8 13.9-5.3 19.6c-.2.9 0 1.8.7 2.4.7.6 1.6.8 2.5.4l22.1-8.8 22.1 8.8c.3.1.6.2.9.2.6 0 1.1-.2 1.6-.6.7-.6 1-1.5.7-2.4l-5.3-19.6 12.6-13.2c.5-.6.7-1.5.5-2.3zM66.2 58.7c-.6.6-.8 1.5-.6 2.3L70 77.3l-18.5-7.4c-.3-.1-.6-.2-.9-.2-.3 0-.6.1-.9.2l-18.5 7.4L35.6 61c.2-.8 0-1.6-.6-2.2l-11.1-12 16.6-5c.6-.2 1.1-.6 1.4-1.2l8.6-15.8 8.6 15.8c.3.5.8.9 1.3 1.1L77 47.3 66.2 58.7z"/></svg>